<svg id="Layer_1" data-name="Layer 1" xmlns="http://www.w3.org/2000/svg" xmlns:xlink="http://www.w3.org/1999/xlink" viewBox="0 0 319.07 252.06"><defs><style>.cls-1,.cls-26{opacity:0.1;}.cls-2{isolation:isolate;}.cls-3{fill:#acd9ea;}.cls-4{fill:#c1e8fa;}.cls-5{fill:#def6ff;}.cls-6{fill:#1d96cb;}.cls-7{fill:#1884aa;}.cls-8{fill:#ff4d75;}.cls-9{fill:#e03b66;}.cls-10{fill:#feb624;}.cls-11{fill:#ffca6c;}.cls-12{fill:#ff5138;}.cls-13{fill:#e73a36;}.cls-14{fill:#fff;}.cls-15{fill:#fffdf4;}.cls-16{fill:#e29813;}.cls-17{fill:#c47f10;}.cls-18{fill:#feb623;}.cls-19{fill:#32293a;}.cls-20{fill:#27202d;}.cls-21{fill:#f74c72;}.cls-22{fill:#f7668b;}.cls-23{fill:#e83421;}.cls-24{fill:#120f1f;}.cls-25{fill:#82c2de;}.cls-27{fill:#3998d8;}.cls-28{fill:#723e24;}.cls-29{fill:#ffaa83;}.cls-30{fill:#615a8e;}.cls-31{fill:#484475;}.cls-32{fill:#f29c79;}.cls-33{fill:url(#linear-gradient);}.cls-34{fill:#f79f7c;}.cls-35{fill:#bfd4dc;}.cls-36{fill:#ef3566;}.cls-37{fill:#ffc255;}.cls-38{fill:#ea9d15;}.cls-39{fill:#2686bc;}.cls-40{fill:#fe2456;}.cls-41{fill:#f77496;}.cls-42{fill:#c7e8f2;}.cls-43{fill:#bcbcb1;}.cls-44{fill:#cecfc2;}.cls-45{fill:#fefefe;}.cls-46{fill:#a0a095;}.cls-47{fill:#656f72;}.cls-48{fill:#41b1d8;}.cls-49{fill:#7cddf7;}.cls-50{fill:#60acc6;}.cls-51{fill:#1d374e;}.cls-52{fill:#c5ced7;}.cls-53{fill:#e1eaf3;}</style><linearGradient id="linear-gradient" x1="416.71" y1="89.21" x2="415.16" y2="123.62" gradientTransform="matrix(-1, 0, 0, 1, 475.78, 0)" gradientUnits="userSpaceOnUse"><stop offset="0" stop-color="#fa5fc8"/><stop offset="1" stop-color="#b161cb"/></linearGradient></defs><title>hero</title><g class="cls-1"><path d="M302.44,139.84c62.5,36.09,62.83,94.6.74,130.68s-163.12,36.09-225.62,0-62.84-94.6-.73-130.69S239.94,103.76,302.44,139.84Z" transform="translate(-30.47 -45.53)"/></g><g class="cls-2"><polygon class="cls-3" points="56.85 41.17 56.86 42.83 64.37 47.19 64.36 45.54 56.85 41.17"/><polygon class="cls-4" points="64.36 45.54 64.37 47.19 104.45 24.05 104.44 22.4 64.36 45.54"/><polygon class="cls-5" points="56.85 41.17 64.36 45.54 104.44 22.4 96.94 18.04 56.85 41.17"/></g><path class="cls-6" d="M112.12,81.06v-.18h0V80.8a.08.08,0,0,1,0,0,.06.06,0,0,1,0,0,0,0,0,0,1,0,0h0v0s0,0,0,0,0,0,0,0a.05.05,0,0,1,0,0s0,0,0,0h0s0,0,0,0a.59.59,0,0,1,0-.09l0,0s0,0,0,0h0l-.06-.1,0-.06h0l0,0s0,0,0,0l0,0,0,0h0l0,0,0,0,0,0,0,0h0a0,0,0,0,1,0,0l0,0,0,0,0,0,0,0h0l-5.8-3.35,0,0h-.07l0,0h-.31l-.06,0-.06,0-8,4.63a.26.26,0,0,1,.12,0h.13l.14,0h0l.16.07,5.8,3.35a.72.72,0,0,1,.15.11h0a.86.86,0,0,1,.14.13h0a.61.61,0,0,1,.12.16h0s.07.11.11.17h0a1.66,1.66,0,0,1,.2.55h0a1.1,1.1,0,0,1,0,.18.88.88,0,0,1,0,.17h0a.58.58,0,0,1-.09.21.32.32,0,0,1-.12.11l8-4.62a.32.32,0,0,0,.12-.11l0,0s0,0,0,0a.08.08,0,0,0,0,0l0,0v-.06h0v0s0,0,0,0v-.1Z" transform="translate(-30.47 -45.53)"/><path class="cls-7" d="M103.41,84.36a1.68,1.68,0,0,1,.77,1.32c0,.49-.35.69-.77.44L97.6,82.77a1.66,1.66,0,0,1-.76-1.32c0-.49.35-.69.77-.44Z" transform="translate(-30.47 -45.53)"/><path class="cls-8" d="M112.75,79.4v-.07s0,0,0,0v0s0,0,0,0h0v-.08a.06.06,0,0,1,0,0s0,0,0,0,0,0,0,0h0l0,0v0s0,0,0,0,0,0,0,0v0h0a.05.05,0,0,0,0,0v0l0,0s0,0,0-.06h0l-.06-.1,0-.07h0l0,0,0,0,0,0,0,0h0l0,0,0,0,0,0s0,0,0,0h0l0,0,0,0,0,0,0,0h0L106,74.6h0l0,0h0l0,0h-.32l-.06,0-.06,0-8.16,4.74a.21.21,0,0,1,.11,0h0a.28.28,0,0,1,.13,0h0a.32.32,0,0,1,.14,0h0l.16.07,6,3.44a.91.91,0,0,1,.16.11h0a.93.93,0,0,1,.14.14h0l.13.16h0a1,1,0,0,0,.11.17h0a1.7,1.7,0,0,1,.21.58h0a1.37,1.37,0,0,1,0,.19.88.88,0,0,1,0,.17h0a.67.67,0,0,1-.09.21.46.46,0,0,1-.12.12l8.16-4.75a.34.34,0,0,0,.12-.12h0l0-.06s0,0,0,0,0,0,0,0a.06.06,0,0,1,0,0v0h0v-.06s0,0,0,0v-.06Z" transform="translate(-30.47 -45.53)"/><path class="cls-9" d="M103.8,82.78a1.75,1.75,0,0,1,.79,1.36c0,.5-.36.7-.79.45l-6-3.43a1.77,1.77,0,0,1-.78-1.37c0-.5.35-.7.79-.45Z" transform="translate(-30.47 -45.53)"/><path class="cls-10" d="M128.8,69.85v-.12a0,0,0,0,0,0,0v0h0a0,0,0,0,1,0,0s0,0,0,0a54082697419,54082697419,0,0,1,0-.08s0,0,0,0h0v0s0,0,0,0v0s0,0,0,0,0,0,0,0h0l0,0,0,0a.17.17,0,0,1,0,0l0,0h0l-.06-.09,0-.07h0l0,0,0,0,0,0s0,0,0,0h0s0,0,0,0l0,0,0,0,0,0,0,0h0l0,0,0,0,0,0,0,0h0l-5.87-3.39h0l0,0h0s0,0,0,0h-.33l0,0-.06,0-8,4.68a.21.21,0,0,1,.12,0h.13a.32.32,0,0,1,.14,0h0l.15.07L120,73.18l.15.11h0l.15.13h0l.13.15h0a1,1,0,0,1,.11.17h0a2,2,0,0,1,.21.56h0a1.09,1.09,0,0,1,0,.18c0,.07,0,.12,0,.17h0a.41.41,0,0,1-.1.21.43.43,0,0,1-.11.12l8-4.68a.28.28,0,0,0,.12-.12h0l0,0,0,0s0,0,0,0,0,0,0,0a0,0,0,0,1,0,0h0v0a0,0,0,0,1,0,0v-.11Z" transform="translate(-30.47 -45.53)"/><path class="cls-11" d="M120,73.18a1.71,1.71,0,0,1,.77,1.34c0,.49-.35.69-.78.45l-5.87-3.4a1.69,1.69,0,0,1-.78-1.33c0-.5.35-.7.78-.45Z" transform="translate(-30.47 -45.53)"/><path class="cls-6" d="M129.46,67.87V67.8s0,0,0,0v0s0,0,0,0h0v0s0,0,0,0,0,0,0,0a.08.08,0,0,0,0,0v0h0a.08.08,0,0,0,0,0v0s0,0,0,0a.08.08,0,0,1,0,0s0,0,0,0h0a.05.05,0,0,1,0,0,.08.08,0,0,1,0,0l0,0s0,0,0,0v0h0l-.06-.09,0-.07h0s0,0,0,0l0,0,0,0,0,0h0l0,0,0,0,0,0,0,0,0,0h0l0,0,0,0,0,0,0,0h0l-5.87-3.39h0l0,0h0l0,0h-.32l-.05,0-.06,0-8.05,4.67.11,0h.14l.14,0h0l.15.07,5.88,3.39.15.11h0a.86.86,0,0,1,.14.13h0l.13.15h0l.11.16h0a1.77,1.77,0,0,1,.2.57h0a1.37,1.37,0,0,1,0,.19.88.88,0,0,1,0,.17h0a.5.5,0,0,1-.09.21.34.34,0,0,1-.12.12l8-4.68a.34.34,0,0,0,.12-.12h0a.14.14,0,0,0,0-.06l0,0V68h0s0,0,0,0v0a0,0,0,0,1,0,0v-.07Z" transform="translate(-30.47 -45.53)"/><path class="cls-7" d="M120.64,71.21a1.74,1.74,0,0,1,.77,1.34c0,.49-.35.69-.78.45l-5.88-3.4a1.69,1.69,0,0,1-.77-1.34c0-.49.35-.69.78-.44Z" transform="translate(-30.47 -45.53)"/><g class="cls-2"><polygon class="cls-3" points="50.92 26.32 50.93 28.02 58.65 32.51 58.65 30.81 50.92 26.32"/><polygon class="cls-4" points="58.65 30.81 58.65 32.51 99.91 8.69 99.9 6.99 58.65 30.81"/><polygon class="cls-5" points="50.92 26.32 58.65 30.81 99.9 6.99 92.18 2.5 50.92 26.32"/></g><path class="cls-10" d="M100.59,68.28v-.11s0,0,0,0a.06.06,0,0,0,0,0h0v0s0,0,0,0,0,0,0,0v0a0,0,0,0,1,0,0h0s0,0,0,0,0,0,0,0,0,0,0,0v0s0,0,0,0h0s0,0,0,0,0,0,0,0l0,0,0,0h0l-.06-.1-.05-.07h0l0,0,0,0s0,0,0,0l0,0h0s0,0,0,0l0,0,0,0,0,0a0,0,0,0,0,0,0h0l0,0,0,0,0,0,0,0h0l-6.06-3.49h0l0,0,0,0h-.42l-.06,0-8.29,4.82.12,0h0a.65.65,0,0,1,.14,0h0a.4.4,0,0,1,.15,0h0l.16.07,6.05,3.5.16.11h0a.62.62,0,0,1,.14.14h0a1,1,0,0,1,.13.16h0a1.13,1.13,0,0,1,.12.18h0a1.76,1.76,0,0,1,.21.58h0a1.34,1.34,0,0,1,0,.2.91.91,0,0,1,0,.17h0a.5.5,0,0,1-.1.22.34.34,0,0,1-.12.12l8.29-4.82a.34.34,0,0,0,.12-.12s0,0,0,0,0,0,0-.06l0,0s0,0,0,0,0,0,0,0h0v0a0,0,0,0,1,0,0v-.11Z" transform="translate(-30.47 -45.53)"/><path class="cls-11" d="M91.51,71.72a1.72,1.72,0,0,1,.79,1.38c0,.5-.36.71-.8.45l-6-3.49a1.75,1.75,0,0,1-.79-1.38c0-.51.36-.71.8-.46Z" transform="translate(-30.47 -45.53)"/><path class="cls-12" d="M101.27,66.25v-.08s0,0,0,0v0s0,0,0,0h0a0,0,0,0,0,0,0v0a.09.09,0,0,1,0,0,.06.06,0,0,1,0,0,0,0,0,0,1,0,0h0s0,0,0,0a.08.08,0,0,1,0,0s0,0,0,0a.08.08,0,0,0,0,0,0,0,0,0,0,0,0h0l0,0a.08.08,0,0,0,0,0l0,0,0,0h0l-.06-.1,0-.07h0l0,0,0,0,0,0,0,0h0l0,0s0,0,0,0l0,0,0,0,0,0h0s0,0,0,0l0,0,0,0,0,0h0l-6-3.49,0,0h0l0,0h-.41l-.06,0-8.29,4.82a.33.33,0,0,1,.12,0h0a.29.29,0,0,1,.13,0h0a.35.35,0,0,1,.14,0h0l.16.07,6,3.5a.72.72,0,0,1,.15.11h0a.92.92,0,0,1,.14.14h0s.09.1.13.16h0l.12.17h0a1.67,1.67,0,0,1,.21.59h0a.68.68,0,0,1,0,.2.88.88,0,0,1,0,.17h0a.49.49,0,0,1-.09.22.34.34,0,0,1-.12.12L101,66.76a.49.49,0,0,0,.13-.12s0,0,0,0l0-.05s0,0,0,0,0,0,0,0v0h0v-.16Z" transform="translate(-30.47 -45.53)"/><path class="cls-13" d="M92.19,69.69A1.75,1.75,0,0,1,93,71.07c0,.5-.36.71-.8.45L86.13,68a1.78,1.78,0,0,1-.79-1.38c0-.51.35-.71.8-.46Z" transform="translate(-30.47 -45.53)"/><path class="cls-14" d="M340.34,179.86h0c0,.55,0,1.1,0,1.66l-.06,1.16-.06.95c0,.39-.07.77-.11,1.15s-.06.64-.1,1-.1.75-.15,1.13-.09.65-.15,1-.13.76-.2,1.13l-.18,1c-.08.37-.16.74-.25,1.11s-.14.65-.22,1-.2.76-.3,1.14-.17.62-.25.93-.25.81-.37,1.21-.18.57-.28.86-.29.84-.44,1.27c-.1.26-.19.53-.29.79-.23.61-.47,1.23-.73,1.84,0,.08-.06.16-.1.25-.29.69-.6,1.38-.92,2.07-.09.2-.2.39-.29.59-.24.49-.47,1-.72,1.48l-.41.75c-.23.44-.46.87-.7,1.3l-.4.69c-.28.49-.57,1-.86,1.46l-.49.78-.87,1.35-.55.81c-.3.44-.61.88-.92,1.31l-.59.81-1,1.3-.58.75c-.61.77-1.25,1.54-1.9,2.31l-.27.31c-.57.65-1.15,1.31-1.75,2l-.62.66c-.54.58-1.09,1.15-1.66,1.71l-.56.58c-.74.73-1.5,1.46-2.28,2.18l-.91.82-1.1,1-1,.83-1.14,1-1,.83c-.38.31-.77.63-1.17.94s-.72.55-1.08.83l-1.2.92-1.13.83-1.24.89-1.18.82-1.28.87c-.4.28-.81.54-1.22.81s-.88.58-1.33.86-.83.53-1.25.79l-1.38.85-2.24,1.34q-2.43,1.4-4.95,2.73l-1.33.7c-1.5.77-3,1.53-4.55,2.27l-.63.3c-1.73.82-3.48,1.6-5.25,2.36l-1.39.59c-1.5.63-3,1.25-4.55,1.84l-1,.41c-1.81.69-3.66,1.35-5.51,2l-1.39.47c-1.24.42-2.5.83-3.77,1.22s-2.43.76-3.66,1.12c-1,.3-2.05.6-3.08.88-1.24.35-2.48.68-3.73,1l-3.15.79c-1.26.31-2.52.6-3.8.88q-1.58.36-3.18.69c-1.29.27-2.58.52-3.88.77s-2.34.45-3.52.66l-1.55.26c-1.81.3-3.62.59-5.43.85l-.88.13c-2.06.29-4.14.55-6.22.79l-1.52.17c-1.3.14-2.6.26-3.9.38-1.59.15-3.18.28-4.77.4l-3.06.21c-1.66.1-3.33.18-5,.25l-2.87.12c-1.45,0-2.9.06-4.34.08-1,0-2.06,0-3.08,0-1.54,0-3.08,0-4.61,0l-2.83,0c-1.39,0-2.78-.11-4.17-.16l-3.1-.13c-1.48-.08-3-.2-4.45-.31-.93-.06-1.86-.11-2.79-.19-1.82-.15-3.62-.33-5.43-.52-.58-.07-1.18-.11-1.76-.18-2.39-.26-4.78-.57-7.15-.9l-1.15-.18c-2-.3-4.06-.61-6.07-1l-2.55-.48c-1.54-.28-3.07-.56-4.59-.87-.8-.16-1.6-.35-2.4-.52-1.68-.37-3.36-.74-5-1.14-.93-.22-1.86-.46-2.79-.7-1.51-.38-3-.78-4.51-1.19-1.3-.36-2.61-.73-3.9-1.12l-1.38-.41q-2.9-.89-5.75-1.85l-1-.36c-1.59-.55-3.15-1.11-4.71-1.7l-1.54-.58c-1.23-.48-2.44-1-3.66-1.48-.81-.33-1.64-.66-2.45-1-1.18-.51-2.34-1-3.5-1.57-.75-.34-1.51-.68-2.25-1-1.27-.6-2.52-1.23-3.76-1.86-.6-.31-1.22-.6-1.81-.91-1.83-1-3.63-1.94-5.39-3C56,223.65,41.25,201.31,41.31,179l0,11.08c0,.7,0,1.4,0,2.09,0,1.4.16,2.79.33,4.18s.4,2.78.68,4.17c3.85,18.72,18.22,36.87,43.09,51.23,1.76,1,3.56,2,5.39,3,.59.31,1.2.6,1.79.9,1.25.63,2.5,1.27,3.78,1.88l2.23,1c1.16.53,2.33,1.07,3.52,1.58l2.44,1c.8.33,1.6.68,2.42,1l1.26.48,1.52.58c1.55.58,3.12,1.15,4.69,1.69l1.05.37c1.89.65,3.8,1.26,5.73,1.85l1.41.42,2.49.74,1.39.37c1.49.41,3,.81,4.5,1.19l2.81.71c1.64.39,3.3.76,5,1.12.65.14,1.28.3,1.94.43l.52.1c1.49.31,3,.58,4.5.86.88.16,1.75.34,2.64.49q3.06.52,6.15,1l1,.16h.09q3.53.51,7.1.9c.67.08,1.35.13,2,.2,1.73.18,3.45.36,5.18.5l.14,0c.87.07,1.73.11,2.6.17,1.5.11,3,.23,4.49.3,1.08.06,2.16.1,3.24.14,1.34.06,2.68.12,4,.16h.38c.85,0,1.7,0,2.55,0,1.51,0,3,.05,4.53,0,1,0,2,0,3.06,0,1.45,0,2.91,0,4.36-.08l.81,0c.68,0,1.36-.07,2-.1,1.67-.07,3.34-.15,5-.25l3.07-.22q2.37-.17,4.74-.39l1.72-.14,2.22-.25,1.49-.16c2.08-.24,4.16-.5,6.22-.79l.9-.13c1.8-.26,3.6-.55,5.39-.85l1.59-.26,1.26-.22c.75-.13,1.48-.3,2.22-.44,1.31-.25,2.61-.5,3.91-.77,1.07-.22,2.13-.46,3.18-.69,1.27-.29,2.54-.57,3.8-.88l3.16-.79c1.24-.33,2.48-.65,3.71-1,1-.29,2.08-.59,3.11-.9,1.21-.35,2.42-.72,3.62-1.1.53-.17,1.07-.31,1.6-.49.74-.24,1.48-.5,2.22-.75l1.34-.45c1.87-.64,3.71-1.31,5.54-2l1-.39q2.31-.9,4.58-1.85l1.38-.59c1.77-.76,3.52-1.54,5.25-2.36l.62-.3q2.31-1.11,4.56-2.28l1.33-.69c1.67-.89,3.33-1.79,4.95-2.74l1.83-1.07.4-.26c.48-.28.94-.57,1.4-.86l1.23-.77c.46-.29.91-.59,1.36-.89l1.19-.78,1.32-.9,1.14-.79,1.27-.92,1.11-.81,1.22-.93,1.06-.82,1.19-1c.34-.27.68-.54,1-.81l1.18-1,.93-.8,1.17-1.05.76-.67.08-.08q1.17-1.09,2.28-2.19l.59-.6c.55-.55,1.09-1.1,1.61-1.66l.67-.72c.56-.61,1.12-1.23,1.65-1.85.12-.14.25-.27.36-.41.65-.75,1.27-1.51,1.87-2.27,0-.07.11-.13.16-.19l.44-.58,1-1.28.63-.87.86-1.23.6-.89c.28-.42.54-.84.81-1.25l.54-.87c.29-.46.55-.92.82-1.39l.35-.58.08-.16c.23-.41.45-.83.67-1.24s.3-.54.44-.81c.23-.46.46-.93.68-1.39l.33-.67c.32-.69.63-1.38.92-2.07a3.42,3.42,0,0,0,.13-.34c.24-.58.48-1.16.7-1.75l0-.07.26-.75c.15-.41.3-.83.44-1.24s.19-.6.28-.9.25-.77.36-1.16.18-.64.27-1,.2-.73.29-1.1.15-.67.23-1l.24-1.08c0-.07,0-.14,0-.21.05-.26.09-.53.14-.79s.14-.73.2-1.1l.15-1,.15-1.11c0-.33.07-.67.1-1s.08-.73.11-1.1l.06-1,.06-1.06c0-.13,0-.26,0-.39,0-.44,0-.88,0-1.32l0-11.07Z" transform="translate(-30.47 -45.53)"/><path class="cls-15" d="M296.2,118.19c58.58,33.82,58.89,88.65.69,122.48s-152.87,33.82-211.44,0S26.56,152,84.76,118.19,237.63,84.37,296.2,118.19Z" transform="translate(-30.47 -45.53)"/><g class="cls-1"><path d="M210.6,231.55c7.59,4.37,7.63,11.48.09,15.86s-19.81,4.38-27.39,0-7.64-11.48-.09-15.86S203,227.16,210.6,231.55Z" transform="translate(-30.47 -45.53)"/></g><path class="cls-16" d="M206.54,231.27c5.49,3.16,5.52,8.3.07,11.47s-14.32,3.16-19.8,0-5.52-8.31-.07-11.47S201.06,228.1,206.54,231.27Z" transform="translate(-30.47 -45.53)"/><polygon class="cls-16" points="145.62 184.29 152.89 193.95 179.55 193.95 186.82 184.29 145.62 184.29"/><path class="cls-17" d="M210.55,224c7.7,3.55,7.74,9.31.09,12.86s-20.09,3.54-27.79,0-7.74-9.3-.1-12.85S202.85,220.41,210.55,224Z" transform="translate(-30.47 -45.53)"/><path class="cls-17" d="M211.39,219.33c8.17,4.72,8.22,12.38.09,17.1s-21.34,4.72-29.52,0-8.22-12.38-.1-17.1S203.21,214.61,211.39,219.33Z" transform="translate(-30.47 -45.53)"/><path class="cls-18" d="M211.33,217.36c8.14,4.7,8.19,12.33.09,17s-21.25,4.7-29.39,0-8.19-12.33-.11-17S203.19,212.66,211.33,217.36Z" transform="translate(-30.47 -45.53)"/><path class="cls-16" d="M210,218.06c7.39,4.27,7.44,11.19.09,15.46s-19.3,4.27-26.7,0-7.43-11.19-.09-15.46S202.59,213.8,210,218.06Z" transform="translate(-30.47 -45.53)"/><path class="cls-8" d="M195.32,223.27s6.68-9.79,11.3-9.43,9.76,5.07,10.28,6.52-10.62,9.27-14.22,10-14.13,1.16-12.42-2.51S193.86,225.24,195.32,223.27Z" transform="translate(-30.47 -45.53)"/><path class="cls-19" d="M190.08,217.19a5.23,5.23,0,0,1,2.33-1.4,9.89,9.89,0,0,1,5.05,0c2.31.46,3.25.63,4.37,1.4s-1.46,4.6-2.57,5.17S188.64,220.18,190.08,217.19Z" transform="translate(-30.47 -45.53)"/><path class="cls-12" d="M183.33,217.19s4.37-2.23,7.11-.77,8.82,2,9.93,4.88,2.2,4.25,2.57,6.58-3.17,6.78-8.56,5.33-7.45-3.69-11-5.91S176.57,221,183.33,217.19Z" transform="translate(-30.47 -45.53)"/><path class="cls-6" d="M180.34,227.88s.94-3.75,4.1-3.92,5.74-.52,8.39,0,6.43,1.37,8.48,2.91,6.34,3.09,6.51,4,1.47,5.23-12.16,4.36S179.81,229.18,180.34,227.88Z" transform="translate(-30.47 -45.53)"/><path class="cls-19" d="M200.28,227.88s.18-3.92,3.22-3.58,10.14-2.15,10.74-.86,1.2,8.69-7,10S199.88,229.66,200.28,227.88Z" transform="translate(-30.47 -45.53)"/><path class="cls-6" d="M180.34,227.88s.94-3.75,4.1-3.92,5.74-.52,8.39,0,6.43,1.37,8.48,2.91,6.34,3.09,6.51,4,1.47,5.23-12.16,4.36S179.81,229.18,180.34,227.88Z" transform="translate(-30.47 -45.53)"/><path class="cls-7" d="M195.66,235.26c10.66.68,12.19-1.79,12.27-3.35-9.25,4.38-20.39.33-24-1.52a4.55,4.55,0,0,1-2.71-4.49,7,7,0,0,0-.92,2C179.81,229.18,182,234.39,195.66,235.26Z" transform="translate(-30.47 -45.53)"/><g class="cls-1"><polygon points="246.84 114.05 216.09 131.92 116.11 74.2 146.87 56.33 246.84 114.05"/></g><path class="cls-4" d="M254.6,162.25a.24.24,0,0,1,0,.08,2.59,2.59,0,0,1-.34.66l-.08.12a3.32,3.32,0,0,1-.57.63l-.08.07a6.4,6.4,0,0,1-.85.61,10,10,0,0,1-1,.46l-.28.11c-.22.08-.45.14-.67.21l-.72.17c-.28.06-.56.11-.85.15l-.22,0c-.4,0-.79.06-1.19.07h-.2a11.48,11.48,0,0,1-1.17-.07l-.19,0a10.42,10.42,0,0,1-1.14-.19l-.2-.05q-.51-.14-1-.3l-.17-.06a9.09,9.09,0,0,1-1.09-.51,3.58,3.58,0,0,1-2.1-2.94v1.86a3.56,3.56,0,0,0,2.11,2.93,8,8,0,0,0,1,.5l.07,0,.16.05c.21.08.42.16.64.22l.36.08.2.05.17.05c.24,0,.47.09.71.12l.26,0,.18,0,.25,0,.7,0H248a6.84,6.84,0,0,0,.79-.05h.1l.21,0c.2,0,.4,0,.6-.09a2.44,2.44,0,0,0,.26-.06c.24,0,.48-.11.71-.18s.26-.05.38-.09l.29-.11.28-.11a8.32,8.32,0,0,0,1-.47l.08-.05a6.94,6.94,0,0,0,.77-.55l.07-.07.06,0a3.84,3.84,0,0,0,.44-.47,1,1,0,0,1,.08-.11l.08-.13c0-.06.09-.12.13-.19a2.93,2.93,0,0,0,.19-.4.13.13,0,0,0,0-.06.41.41,0,0,0,0-.08,1.25,1.25,0,0,0,.07-.26,1.92,1.92,0,0,0,.05-.41v-1.92A2.29,2.29,0,0,1,254.6,162.25Z" transform="translate(-30.47 -45.53)"/><path class="cls-5" d="M252.63,158.59c2.78,1.6,2.8,4.21,0,5.83a11.1,11.1,0,0,1-10.07,0c-2.79-1.62-2.8-4.23,0-5.84A11.07,11.07,0,0,1,252.63,158.59Z" transform="translate(-30.47 -45.53)"/><rect class="cls-4" x="216" y="47.09" width="2.27" height="69.81"/><path class="cls-4" d="M183.62,118.24a.24.24,0,0,1,0,.08,2.59,2.59,0,0,1-.34.66.83.83,0,0,1-.08.12,3.69,3.69,0,0,1-.57.63l-.08.07a6.37,6.37,0,0,1-.85.6,8.18,8.18,0,0,1-1,.47l-.28.11c-.22.08-.45.14-.67.2l-.72.18c-.28.06-.56.11-.85.15l-.22,0c-.39,0-.79.06-1.19.07h-.2c-.39,0-.79,0-1.17-.07l-.19,0a10.42,10.42,0,0,1-1.14-.19l-.2,0c-.34-.09-.67-.19-1-.31l-.16,0a9.09,9.09,0,0,1-1.09-.51,3.59,3.59,0,0,1-2.1-2.94v1.85a3.56,3.56,0,0,0,2.11,2.94,6.85,6.85,0,0,0,1,.49l.06,0,.17.06q.31.12.63.21l.36.09.2.05.18,0c.24,0,.47.09.71.12l.26,0,.18,0,.25,0c.23,0,.47,0,.7,0a1.77,1.77,0,0,0,.23,0h.5c.27,0,.53,0,.79,0h.09l.22,0,.6-.09a2.44,2.44,0,0,0,.26-.06c.24,0,.48-.11.71-.18l.38-.09.29-.11.28-.11a7.66,7.66,0,0,0,1-.47l.08-.05a5.88,5.88,0,0,0,.77-.56l.07-.06.06,0a3.84,3.84,0,0,0,.44-.47l.08-.12.08-.12c0-.06.09-.12.13-.19a3.62,3.62,0,0,0,.19-.4.15.15,0,0,0,0-.07s0,0,0-.08a2.33,2.33,0,0,0,.07-.25,2,2,0,0,0,.05-.41v-1.92A2.34,2.34,0,0,1,183.62,118.24Z" transform="translate(-30.47 -45.53)"/><path class="cls-5" d="M181.65,114.57c2.78,1.61,2.8,4.22,0,5.83a11.13,11.13,0,0,1-10.07,0c-2.79-1.62-2.8-4.23,0-5.84A11.1,11.1,0,0,1,181.65,114.57Z" transform="translate(-30.47 -45.53)"/><rect class="cls-4" x="145.02" y="3.08" width="2.28" height="69.81"/><path class="cls-20" d="M181.69,68.29A29,29,0,0,1,185,66.65c-.23.28-.47.56-.73.85a26.22,26.22,0,0,0-2.58,1.32c-.81.47-1.59,1-2.33,1.49a3,3,0,0,1-.6-.1c.77-.56,1.57-1.1,2.41-1.61l.46-.27Z" transform="translate(-30.47 -45.53)"/><path class="cls-20" d="M180.79,60.7l.22-.1a1.64,1.64,0,0,1,1.76.16l-.36.54a1.37,1.37,0,0,0-1.45-.15l-.15.07a3.43,3.43,0,0,0-1.09,1.14,4.62,4.62,0,0,0-.85,2.85c.19.82,1.09,1,2.6.57l.18,0,0,2.6-.46.27,0-2.19c-1.61.43-2.54.16-2.76-.82s.53-2.76,1-3.46A4.29,4.29,0,0,1,180.79,60.7Z" transform="translate(-30.47 -45.53)"/><path class="cls-21" d="M186.63,64.34l4.06-1c8.44-.59,9.92,5.67,10,6l-5.59,5.78-3-.92.68,26.15L172.72,111.6l.08-25.88-2.51,4.45-4.84.42,1-6.48c2-7.39,11-13.94,11.47-14.29a3.14,3.14,0,0,0,.86.39,3,3,0,0,0,.6.1,4.14,4.14,0,0,0,2.36-.65,10.88,10.88,0,0,0,2.55-2.16c.26-.29.5-.57.73-.85A20.92,20.92,0,0,0,186.63,64.34Z" transform="translate(-30.47 -45.53)"/><path class="cls-22" d="M176.37,82.46l5.51-3.94s1.11,8.16-2.43,9.12S175.46,83.11,176.37,82.46Z" transform="translate(-30.47 -45.53)"/><path class="cls-20" d="M192.71,74.53A27.47,27.47,0,0,1,196,72.89c-.23.27-.47.56-.73.84a28.74,28.74,0,0,0-2.58,1.33c-.81.46-1.59,1-2.34,1.49a3.16,3.16,0,0,1-.6-.11c.77-.56,1.58-1.1,2.42-1.6l.46-.28Z" transform="translate(-30.47 -45.53)"/><path class="cls-20" d="M191.81,66.94l.21-.11a1.64,1.64,0,0,1,1.77.17l-.36.53a1.4,1.4,0,0,0-1.45-.15.71.71,0,0,0-.15.08,3.44,3.44,0,0,0-1.1,1.14,4.61,4.61,0,0,0-.84,2.85c.18.81,1.08,1,2.6.57l.18,0,0,2.59-.46.28,0-2.2c-1.62.44-2.55.16-2.77-.81a5.47,5.47,0,0,1,1-3.46A4.29,4.29,0,0,1,191.81,66.94Z" transform="translate(-30.47 -45.53)"/><path class="cls-18" d="M197.65,70.58l4.06-1c8.44-.6,9.91,5.67,10,6l-5.58,5.78-3-.92.68,26.14-20.07,11.24L183.82,92l-2.52,4.45-4.83.41,1-6.47c2-7.4,11-13.95,11.47-14.29a3.53,3.53,0,0,0,.85.38,3.16,3.16,0,0,0,.6.11,4.28,4.28,0,0,0,2.37-.65,10.93,10.93,0,0,0,2.55-2.17c.26-.28.5-.57.73-.84A20.92,20.92,0,0,0,197.65,70.58Z" transform="translate(-30.47 -45.53)"/><path class="cls-16" d="M187.18,89.11l5.5-3.93s1.12,8.15-2.43,9.11S186.27,89.76,187.18,89.11Z" transform="translate(-30.47 -45.53)"/><path class="cls-20" d="M202.63,80.33a29,29,0,0,1,3.31-1.64c-.23.28-.47.56-.73.85a26.22,26.22,0,0,0-2.58,1.32c-.81.47-1.59,1-2.34,1.49a3.16,3.16,0,0,1-.6-.11c.78-.56,1.58-1.1,2.42-1.6l.46-.27Z" transform="translate(-30.47 -45.53)"/><path class="cls-20" d="M201.73,72.74l.21-.11a1.64,1.64,0,0,1,1.77.17l-.36.53a1.43,1.43,0,0,0-1.45-.15l-.15.08a3.44,3.44,0,0,0-1.1,1.14,4.67,4.67,0,0,0-.84,2.85c.18.81,1.08,1,2.6.57l.18,0,0,2.6-.46.27,0-2.19c-1.62.43-2.55.16-2.77-.82a5.47,5.47,0,0,1,1-3.46A4.29,4.29,0,0,1,201.73,72.74Z" transform="translate(-30.47 -45.53)"/><path class="cls-12" d="M207.57,76.38l4.06-1c8.44-.6,9.92,5.67,10,6L216,87.18l-3-.92.68,26.15-20.07,11.23.08-25.88-2.52,4.45-4.83.41,1-6.47c2-7.39,11-14,11.47-14.29a3.23,3.23,0,0,0,1.45.49,4.28,4.28,0,0,0,2.37-.65,11.13,11.13,0,0,0,2.55-2.16c.26-.29.5-.57.73-.85A20.92,20.92,0,0,0,207.57,76.38Z" transform="translate(-30.47 -45.53)"/><path class="cls-23" d="M197.1,94.91,202.61,91s1.11,8.16-2.44,9.11S196.19,95.56,197.1,94.91Z" transform="translate(-30.47 -45.53)"/><path class="cls-20" d="M222.18,91a28.1,28.1,0,0,1,3.3-1.64q-.33.42-.72.84a28.74,28.74,0,0,0-2.58,1.33c-.81.47-1.6,1-2.34,1.49a3.16,3.16,0,0,1-.6-.11c.77-.56,1.58-1.1,2.42-1.6a4.25,4.25,0,0,1,.46-.27A.13.13,0,0,1,222.18,91Z" transform="translate(-30.47 -45.53)"/><path class="cls-20" d="M221.28,83.42l.21-.11a1.64,1.64,0,0,1,1.77.17l-.36.53a1.45,1.45,0,0,0-1.46-.15l-.15.08a3.53,3.53,0,0,0-1.09,1.14,4.62,4.62,0,0,0-.85,2.85c.19.81,1.09,1,2.61.57l.17,0v2.6a4.25,4.25,0,0,0-.46.27v-2.2c-1.61.44-2.54.16-2.76-.81a5.47,5.47,0,0,1,1-3.46A4.29,4.29,0,0,1,221.28,83.42Z" transform="translate(-30.47 -45.53)"/><path class="cls-24" d="M227.12,87.06l3.54-.78a14.28,14.28,0,0,1,9.42,7.4l-4.49,4.18-3-.92.69,26.15-20.07,11.23.08-25.88-2.52,4.45-4.83.41,1-6.47c2-7.4,11-14,11.46-14.29a3.24,3.24,0,0,0,.86.38,3.16,3.16,0,0,0,.6.11,4.22,4.22,0,0,0,2.36-.65,10.77,10.77,0,0,0,2.56-2.17q.39-.42.72-.84A23.87,23.87,0,0,0,227.12,87.06Z" transform="translate(-30.47 -45.53)"/><path class="cls-19" d="M216.65,105.59l5.5-3.93s1.12,8.16-2.43,9.11S215.74,106.24,216.65,105.59Z" transform="translate(-30.47 -45.53)"/><path class="cls-25" d="M250,80.18,194.82,48.36c-.31-.18-.64-.35-1-.51l-.35-.15c-.2-.09-.39-.18-.6-.26l-.07,0c-.46-.18-.94-.34-1.43-.48l-.11,0-.34-.08-.83-.2-.22-.06c-.11,0-.23,0-.34-.06l-.7-.12-.28,0-.32,0-.66-.08-.32,0-.3,0-.69,0H184.6l-.22,0q-.45,0-.9.06l-.36,0-.11,0c-.52.05-1,.12-1.52.21h-.07l-.43.09-.74.16-.52.14L179,47l-.15,0a2.18,2.18,0,0,0-.23.09c-.36.12-.7.25-1,.39l-.38.16c-.43.2-.85.41-1.25.64l-.16.09-.35.23L175,49c-.14.1-.25.2-.38.3s-.28.22-.4.33l-.08.07a5.43,5.43,0,0,0-.48.48l-.1.11-.25.3a1,1,0,0,0-.09.13c-.12.16-.22.32-.32.48l-.13.18a1,1,0,0,1,0,.1,4.14,4.14,0,0,0-.2.43l-.11.23,0,.08c0,.14-.08.28-.11.41s-.06.18-.08.26a.22.22,0,0,1,0,.08c0,.14,0,.28,0,.42a2.51,2.51,0,0,0,0,.27v1.73c0-.13,0-.26,0-.39a3.34,3.34,0,0,1,.05-.43c0-.11.05-.22.08-.33s.07-.27.12-.41l.13-.31c.06-.14.13-.29.2-.43l.17-.28.32-.48a2.75,2.75,0,0,1,.22-.26,5.43,5.43,0,0,1,.57-.61,2.18,2.18,0,0,1,.21-.22l.41-.34c.12-.1.24-.2.37-.29s.32-.21.48-.32L176,50c.4-.23.82-.44,1.26-.64l.38-.16c.34-.14.68-.27,1-.39l.41-.14.66-.19.54-.14.73-.16.51-.1c.5-.09,1-.16,1.51-.21l.47,0c.31,0,.61,0,.92-.06l.56,0h1.35l.67,0,.62,0,.67.08.59.08.71.12.55.11.84.21.44.12c.49.14,1,.3,1.43.48l.67.28.35.16c.34.16.67.33,1,.51L249.94,81.8c2.63,1.51,3.94,3.5,3.94,5.49V85.68C253.88,83.69,252.57,81.7,250,80.18Z" transform="translate(-30.47 -45.53)"/><path class="cls-5" d="M250.64,79.78c5.6,3.23,5.63,8.49.07,11.72s-14.64,3.24-20.24,0L175.35,59.68c-5.61-3.24-5.63-8.5-.07-11.73s14.64-3.23,20.24,0ZM231.17,91.1c5.21,3,13.66,3,18.84,0s5.15-7.91-.06-10.92L194.82,48.36c-5.21-3-13.66-3-18.84,0s-5.15,7.9.06,10.91L231.17,91.1Z" transform="translate(-30.47 -45.53)"/><path class="cls-4" d="M254.83,86.1c0,.15,0,.31-.06.46s-.05.23-.08.35-.08.3-.13.44a3.45,3.45,0,0,1-.14.34c-.07.15-.14.31-.22.46a2.59,2.59,0,0,1-.19.31,5,5,0,0,1-.34.51c-.11.15-.23.31-.36.46l-.1.12c-.19.2-.4.39-.61.59l-.43.36-.4.31-.53.35c-.17.11-.34.23-.53.34-.43.25-.88.47-1.34.68l-.42.18c-.36.15-.73.29-1.1.42l-.43.15-.72.2-.58.16-.77.16-.56.11c-.53.1-1.08.17-1.62.23l-.52,0-1,.07h-1.4l-.66,0-.73,0-.65,0-.73-.08-.63-.09-.77-.14-.59-.12c-.3-.06-.59-.14-.89-.22l-.49-.13q-.78-.23-1.53-.51l-.7-.3-.39-.17c-.36-.17-.71-.35-1.05-.55L175.35,59.68c-2.82-1.63-4.23-3.77-4.22-5.91,0,.54,0,1.08,0,1.61,0,2.14,1.4,4.28,4.22,5.91l55.13,31.82c.34.2.69.38,1.05.55.11.06.24.1.36.16l.64.28.08,0c.5.19,1,.36,1.54.51l.12,0,.36.1c.3.07.59.15.9.21l.23.06c.12,0,.25,0,.37.06s.49.1.74.13l.31.06.34,0,.72.08.34,0,.32,0,.73,0,.36,0h1.08c.13,0,.26,0,.39,0h.23l1-.07.39,0,.12,0c.55-.06,1.09-.13,1.62-.23h.1l.49-.1.74-.16.59-.16c.24-.07.48-.13.72-.21l.16,0,.26-.1q.57-.19,1.11-.42l.41-.18a14.19,14.19,0,0,0,1.35-.68l.17-.1c.14-.08.25-.17.38-.25s.34-.22.5-.34l.41-.32c.14-.12.29-.23.42-.35a.73.73,0,0,0,.09-.08,6.38,6.38,0,0,0,.52-.52l.1-.11c.09-.11.19-.21.27-.32a1.7,1.7,0,0,1,.1-.14c.12-.17.23-.34.34-.51s.1-.13.14-.2a1.17,1.17,0,0,1,0-.11c.08-.15.14-.3.21-.45s.09-.17.12-.26a.32.32,0,0,1,0-.09c.05-.15.08-.29.12-.43s.06-.19.08-.29,0,0,0-.07a3.8,3.8,0,0,0,0-.46,2.85,2.85,0,0,0,0-.29.53.53,0,0,0,0-.13V85.68C254.86,85.82,254.84,86,254.83,86.1Z" transform="translate(-30.47 -45.53)"/><path class="cls-20" d="M191.48,67.71a5.64,5.64,0,0,0-1.56,2.82l-.47.21a6.65,6.65,0,0,1,2-3.57Z" transform="translate(-30.47 -45.53)"/><path class="cls-20" d="M201.4,73.52a5.64,5.64,0,0,0-1.56,2.81l-.47.22a6.67,6.67,0,0,1,2-3.58Z" transform="translate(-30.47 -45.53)"/><path class="cls-20" d="M221,84.2A5.7,5.7,0,0,0,219.38,87l-.46.21a6.65,6.65,0,0,1,2-3.57Z" transform="translate(-30.47 -45.53)"/><path class="cls-20" d="M180.46,61.48a5.72,5.72,0,0,0-1.56,2.81l-.47.22a6.67,6.67,0,0,1,2-3.58Z" transform="translate(-30.47 -45.53)"/><polygon class="cls-26" points="42.49 116.2 42.21 116.04 99.9 82.52 166.9 121.2 133.6 140.55 133.88 140.71 76.2 174.23 9.2 135.55 42.49 116.2"/><path class="cls-27" d="M84.21,158.28c7.32,4.22,7.36,11.07.09,15.3s-19.1,4.22-26.41,0-7.37-11.07-.09-15.3S76.89,154.05,84.21,158.28Z" transform="translate(-30.47 -45.53)"/><path class="cls-28" d="M64.57,91.61a21.85,21.85,0,0,0-1.47,4.06c-.56,2.24,1.47,6,1.47,6s2.82-8.27,2.1-9.58S64.57,91.61,64.57,91.61Z" transform="translate(-30.47 -45.53)"/><path class="cls-29" d="M76.48,122.18S78,137.7,77.46,141s-1.85,20.63-1.85,20.63a1.66,1.66,0,0,1-1.27.59c-1.76.15-2-.41-2-.41s-3.15-14.26-1.25-19.2L69,126.09v-2.3S74.52,123.1,76.48,122.18Z" transform="translate(-30.47 -45.53)"/><path class="cls-30" d="M75.37,161.48a4.58,4.58,0,0,1-.17-1.59s-2.45,1-4,.07a4.49,4.49,0,0,1-.09,1.89C70.78,162.63,75,162.53,75.37,161.48Z" transform="translate(-30.47 -45.53)"/><path class="cls-30" d="M72.34,161.7s-1.37,2.24.17,2.94,1.54-.39,4.41,2.09,5.49,1.46,5.86.94c.91-1.26-.61-2.56-7-6Z" transform="translate(-30.47 -45.53)"/><path class="cls-31" d="M72.51,164.64c1.48.82,1.55-.39,4.41,2.09s5.45,1.43,5.87.94a.48.48,0,0,0,.09-.31c-2.68,1-4.13-.41-5.3-1.36a8.71,8.71,0,0,0-4.07-1.79c-1.84-.42-1.16-1.91-1.16-1.91,0-.29-.06-1.8-.26-1.81C72.09,162.23,70.89,163.74,72.51,164.64Z" transform="translate(-30.47 -45.53)"/><path class="cls-24" d="M77.71,118.68s1.44,13.8.62,21.72-1.63,16.69-1.43,21.2c.07,1.49-5.57,3.14-6,0-.47-3.75-2.11-14.28.15-18.95l-3.71-20.28S74,121.36,77.71,118.68Z" transform="translate(-30.47 -45.53)"/><path class="cls-29" d="M68.41,123.4s1.46,16.47.94,20-1.87,22.09-1.87,22.09h-3s-3.23-16-1.2-20.38l-2-17.56v-2.44S66.54,124.37,68.41,123.4Z" transform="translate(-30.47 -45.53)"/><path class="cls-30" d="M64.2,164.81s-1.38,2.26.17,3,1.56-.39,4.46,2.11,5.54,1.48,5.92,1c.91-1.27-.62-3.33-7.06-6.76Z" transform="translate(-30.47 -45.53)"/><path class="cls-31" d="M64.38,167.78c1.49.83,1.55-.39,4.45,2.11s5.5,1.45,5.92,1a.6.6,0,0,0,.1-.32c-2.71,1-4.17-.4-5.36-1.37a8.73,8.73,0,0,0-4.11-1.8c-1.85-.42-1.17-1.94-1.17-1.94,0-.29,0-1.8-.26-1.82C63.94,165.35,62.74,166.87,64.38,167.78Z" transform="translate(-30.47 -45.53)"/><path class="cls-19" d="M60.49,120.82s-2.63,3.94-.69,13.33,2.61,12.15,2.61,12.15-.46,1.18,0,8.7c.43,7.06.44,6.6.6,10,.07,1.35,5.52,2,5.75-.86.48-6.05,1-21.78,1-21.78l1.31-15,6.63-8.68S64.06,123.3,60.49,120.82Z" transform="translate(-30.47 -45.53)"/><path class="cls-29" d="M91.8,105.74a4.74,4.74,0,0,1,2.16-.89,4.36,4.36,0,0,1,2.88.29c.93.26,1.6.54,1.46,1s-2.1,1.38-3.35,1.2c-.78-.12-2.59,1.1-3,1.14S91.36,106,91.8,105.74Z" transform="translate(-30.47 -45.53)"/><path class="cls-32" d="M91.93,108.49c.43,0,2.24-1.26,3-1.14a5,5,0,0,0,2.85-.74.09.09,0,0,0,0,0c-.21-.25-.85,0-1.27-.07s-1.69.13-2.53.06a5,5,0,0,0-2.26,1l-.14.11C91.64,108.13,91.76,108.51,91.93,108.49Z" transform="translate(-30.47 -45.53)"/><path class="cls-16" d="M71.79,94.24s2.17-3.4,4.94-.1c1.8,2.14,5.3,11,6.39,11.69.54.33,8.95-.74,8.95-.74s-1.15,1.36.72,3.62c0,0-10.68,4.49-12.69,2.4C76.65,107.52,70.58,98.22,71.79,94.24Z" transform="translate(-30.47 -45.53)"/><path class="cls-18" d="M61.29,96C62.4,95,74,91.73,75.37,92.74c.89.67,1.13.72,2.68,5.09a9.62,9.62,0,0,1-.39,6.82c-2,4.37-1.68,6.59-1.57,7.78.16,1.76,2,4.68,1.62,6.25-.47,2.14-14.4,6.59-17.21,2.14,0,0-.71-.32.79-5.1C64.46,105.53,57.24,99.51,61.29,96Z" transform="translate(-30.47 -45.53)"/><path class="cls-33" d="M60.5,120.82s0,0,0,0Z" transform="translate(-30.47 -45.53)"/><path class="cls-34" d="M71.12,90.57s-.59,2.67,0,4.07-1.55,1.85-2.56,1.5-2.62-1-2.4-2,1.12-3.86.53-4.92S71.12,90.57,71.12,90.57Z" transform="translate(-30.47 -45.53)"/><path class="cls-29" d="M66,82.37s-3,3-2.22,6.22c.45,1.76,2.48,2.91,3.64,3.82s3.47,3,5.3,1.49,2.32-8.5-.05-11.53S66,82.37,66,82.37Z" transform="translate(-30.47 -45.53)"/><path class="cls-28" d="M72.63,83.68s.29,2.07-4.36,2.72c-1.14.16-.93,3.64-1.82,2.76-.34-.33-1.23-1-1.34-.49-.5,2.39,1.83,1.74,1.56,3.38-.64,4-5.3-2.57-4.53-7,.56-3.31,2.65-6.11,7.38-5.28A5.19,5.19,0,0,1,74,85.17S73.43,83.6,72.63,83.68Z" transform="translate(-30.47 -45.53)"/><path class="cls-8" d="M64.3,92.19a3.1,3.1,0,0,0,2.28-.86s.37.43-.15,1.8a7.74,7.74,0,0,1-2.58.17C62.93,93.08,64,92.46,64.3,92.19Z" transform="translate(-30.47 -45.53)"/><g class="cls-2"><polygon class="cls-3" points="67.88 122.36 67.99 164.18 71.66 166.31 71.54 124.49 67.88 122.36"/><polygon class="cls-4" points="71.54 124.49 71.66 166.31 75.35 164.18 75.23 122.36 71.54 124.49"/><polygon class="cls-35" points="67.88 122.36 71.54 124.49 75.23 122.36 71.56 120.23 67.88 122.36"/></g><g class="cls-2"><polygon class="cls-3" points="21.19 102.03 21.36 137.36 25.02 139.49 25.02 104.25 21.19 102.03"/><polygon class="cls-4" points="24.9 99.88 25.02 139.49 28.71 137.36 28.6 97.75 24.9 99.88"/></g><g class="cls-2"><polygon class="cls-3" points="147.93 82.82 148.05 124.63 151.72 126.76 151.6 84.94 147.93 82.82"/><polygon class="cls-4" points="151.6 84.94 151.72 126.76 155.41 124.63 155.29 82.82 151.6 84.94"/><polygon class="cls-35" points="147.93 82.82 151.6 84.94 155.29 82.82 151.62 80.68 147.93 82.82"/></g><g class="cls-2"><polygon class="cls-3" points="21.19 102.03 21.2 105.81 71.61 135.11 71.6 131.32 21.19 102.03"/><polygon class="cls-4" points="71.6 131.32 71.61 135.11 155.41 86.73 155.4 82.94 71.6 131.32"/><polygon class="cls-5" points="21.19 102.03 71.6 131.32 155.4 82.94 104.98 53.65 21.19 102.03"/></g><path class="cls-8" d="M73.27,118.2c.56-2.88,4.48-7.5,10.59-8s4.53-2.66,10.11-3.7,3,11.46,14.59,15.14c4.42,1.41,38.23,5.23,33.61,10s-19.11,9.8-31.08,7.86-9.5,2.89-12.77,2.61S70.74,131.24,73.27,118.2Z" transform="translate(-30.47 -45.53)"/><path class="cls-36" d="M97.8,147c2.48-.12,2.19-7.32,6.81-7.82-2.16-1-4.35-2-6.27-2.73-6.76-2.64-11.93-7.89-15.32-15.14a11,11,0,0,0-8-6.49,8.2,8.2,0,0,0-1.78,3.41C70.74,131.24,85.16,147.56,97.8,147Z" transform="translate(-30.47 -45.53)"/><path class="cls-29" d="M71.07,116.28a4.75,4.75,0,0,1,2.3.35,4.41,4.41,0,0,1,2.33,1.74c.66.7,1.09,1.31.74,1.63s-2.52.12-3.5-.69c-.61-.5-2.78-.37-3.18-.57S70.53,116.31,71.07,116.28Z" transform="translate(-30.47 -45.53)"/><path class="cls-32" d="M69.76,118.74c.4.2,2.57.07,3.18.57a5,5,0,0,0,2.83.84s0-.05,0-.07c-.06-.32-.73-.43-1.06-.71s-1.51-.77-2.2-1.25a4.94,4.94,0,0,0-2.45-.32l-.17,0C69.69,118.28,69.61,118.67,69.76,118.74Z" transform="translate(-30.47 -45.53)"/><path class="cls-37" d="M61,96.3s2.63-1.3,3.26,1.45-1.27,13-.68,14.13c.28.57,8.06,4,8.06,4s-1.68.58-1.24,3.5c0,0-11.47-1.62-12.13-4.48C57.14,110,57.91,99.12,61,96.3Z" transform="translate(-30.47 -45.53)"/><path class="cls-18" d="M96.63,144.49c1.09.69-11.31,13.71-7.78,16s6.07-3.15,14-7.82c7.59-4.46,9.21-8.09,15.89-.36,3.67,4.25,17.32-2.41,18.15-8.53s1-10.11-7.21-13.31C121.7,127.37,84.18,136.65,96.63,144.49Z" transform="translate(-30.47 -45.53)"/><path class="cls-38" d="M96.63,144.49c1.93,1.22-18.92,7.65-10.56,9.52,4.11.92-3.23,10.77,5.5,9.58s24.24-21.77,23.66-10.33c-.43,8.42,20.85-3.36,21.68-9.48.07-.47.13-.92.18-1.36-1.84,0-20.84,11.82-21.43,3.66-.57-8-18.71,12-24.09,13.23s15.57-15.66,8.67-14.87c-4.57.53-3.67-4.29-2.55-7.62C93.85,139.21,92.55,141.93,96.63,144.49Z" transform="translate(-30.47 -45.53)"/><path class="cls-27" d="M121.37,143.43s6.77-10.88,13.84-11.27,9.46-13.86,12.57-14,3.71,1.43,5,5.1,2.89,6.44,2.66,8.62-12.84,21.86-30.5,21.44S120.32,145.63,121.37,143.43Z" transform="translate(-30.47 -45.53)"/><path class="cls-39" d="M124.91,153.28c17.66.42,30.27-19.25,30.5-21.44s-1.4-5-2.66-8.62c.31,10-7.78,16.24-12.86,20.49s-9.65,5.72-15.53,6.54-6-3.79-6-3.79h0C115.23,149.37,112.56,153,124.91,153.28Z" transform="translate(-30.47 -45.53)"/><path class="cls-29" d="M140,136.49s-4-.92-4.46-3.24-.14-2.78.77-2.07,3.38,2.51,3.35,2-.65-1.45-.19-1.51,2.2,2.8,2.2,2.8l-.13,2.51Z" transform="translate(-30.47 -45.53)"/><path class="cls-26" d="M156.43,191c-7.34,4.24-7.38,11.1-.09,15.34s19.14,4.23,26.48,0,7.37-11.1.09-15.34S163.76,186.79,156.43,191Z" transform="translate(-30.47 -45.53)"/><path class="cls-18" d="M174.3,196.16c-.12,0-6.51-.18-5.09,2.05a3.65,3.65,0,0,0,3.16,1.72c1,0,2.71-.5,3.14-.24s2.6,1.66,3.84.26a2.13,2.13,0,0,0,.25-1.63C179.44,197.8,175,196,174.3,196.16Z" transform="translate(-30.47 -45.53)"/><path class="cls-17" d="M169.21,198.21a3.65,3.65,0,0,0,3.16,1.72c1,0,2.71-.5,3.14-.24s2.6,1.66,3.84.26a1.7,1.7,0,0,0,.29-.81c-.87,1.19-3,.87-3.58.48a3.48,3.48,0,0,0-2.47-.51,5,5,0,0,1-3.57-.85,1.34,1.34,0,0,1-.41-1.44A.87.87,0,0,0,169.21,198.21Z" transform="translate(-30.47 -45.53)"/><path class="cls-18" d="M165.12,200.32c-4.59-.6-9.4.14-7.62,2.49a4.78,4.78,0,0,0,4,1.78c1.21,0,3.44-.57,4-.29s3.28,1.72,4.88.2a3.09,3.09,0,0,0,.62-2.19C170.79,201.75,166,200.44,165.12,200.32Z" transform="translate(-30.47 -45.53)"/><path class="cls-29" d="M154.34,117.27s-3.17-2.61-5.28-1.55-2.29,1.58-1.18,1.87,4.07,1.14,3.64,1.43-1.55.37-1.31.77,3.55,0,3.55,0l1.91-1.63Z" transform="translate(-30.47 -45.53)"/><path class="cls-40" d="M177.12,123.83s3.88,0,3.73,3.93c-.16,4.17-8.32,2.29-8.32,2.29s-7.09-1-9.25-2c-2.88-1.34-10.16-7.7-10.16-7.7s.68-2.39,2.38-2.92c0,0,6.92,5.16,9.61,5.86C168.06,124,176.48,123.65,177.12,123.83Z" transform="translate(-30.47 -45.53)"/><path class="cls-24" d="M178.45,148.08s4,6.72.41,16c0,0-2.74,7.84-2.13,10.47.72,3.15,1.79,2.26,2.56,12.68.68,9.2.64,7.75.48,11.13-.05,1.07-4.35,2-5-.71-1.77-6.89-6.06-21.29-5.27-29.62s1.28-16.12,1.28-16.12S175.72,150.45,178.45,148.08Z" transform="translate(-30.47 -45.53)"/><path class="cls-19" d="M172.88,153.26s4,6-1.4,13.88c0,0-4.07,8.87-3.51,11.85s1.57,2.83,2.63,12.24c.67,6,1.09,7.49.61,11.35-.17,1.42-5.66,1.56-6-.46-1.12-7-6.34-22-5.56-30.35s2.46-17.71,2.46-17.71S169.25,155.28,172.88,153.26Z" transform="translate(-30.47 -45.53)"/><path class="cls-8" d="M162,133s-.95-4.43,6.45-7.08,12-2.56,12.07,1.57-1.83,9.64-2.09,11.5a16.37,16.37,0,0,0,.89,9.33c1.77,4.23,2.6,8.28-9.13,9-2,.12-9.67.08-8.59-4.67A59.24,59.24,0,0,0,162,133Z" transform="translate(-30.47 -45.53)"/><path class="cls-41" d="M163,129.1a3.4,3.4,0,0,1,4.91,1.87c1.6,3.89-6.34,6-6.34,6s-6.64,2.38-8.95,2.48c-3.09.12-12.13-2.32-12.13-2.32s-.4-2.5.86-3.78c0,0,8.23,1.5,10.89.88C155.14,133.54,162.36,129.25,163,129.1Z" transform="translate(-30.47 -45.53)"/><path class="cls-29" d="M168.9,121.23s.78,3.13-.75,5c-.82,1,2.46,2.1,5.12.74,0,0,.23-5.35,2.2-7.22Z" transform="translate(-30.47 -45.53)"/><path class="cls-34" d="M169.09,123.47a12,12,0,0,0,3-.86l.12.08.6.86.35-.5s-.61,3.26-4.55,2.55A7.11,7.11,0,0,0,169.09,123.47Z" transform="translate(-30.47 -45.53)"/><path class="cls-17" d="M157.5,202.81a4.78,4.78,0,0,0,4,1.78c1.21,0,3.44-.57,4-.29s3.28,1.72,4.88.2a2.53,2.53,0,0,0,.52-1c-1.12,1.28-3.95,1.15-4.7.75a5,5,0,0,0-3.14-.5,7.14,7.14,0,0,1-4.51-.86,2,2,0,0,1-.76-1.93A1.19,1.19,0,0,0,157.5,202.81Z" transform="translate(-30.47 -45.53)"/><path class="cls-29" d="M168.82,108.66A7.19,7.19,0,0,0,165.2,114c-.58,3.74-1.75,7,.1,8.59s8.76,1.21,11-3.55S175.72,106.49,168.82,108.66Z" transform="translate(-30.47 -45.53)"/><path class="cls-28" d="M172.87,122.21s-.89,6.34,2.21,10.75c1.75,2.5,1.79,4.41,1.55,5.55s5-3.52,2.7-8.81-4.46-7.49-4.46-7.49Z" transform="translate(-30.47 -45.53)"/><path class="cls-28" d="M164.35,113.46a2.59,2.59,0,0,0,1.59,2.33c1.7.7,3.7.61,3.89,1.76s.6,4.34,2.07,5.34c1.89,1.27,2.07-.2,2.85-1.07,1.06-1.18,3.85-5.6,1.62-10.4a5.68,5.68,0,0,0-6.08-3.15S164.57,109,164.35,113.46Z" transform="translate(-30.47 -45.53)"/><path class="cls-29" d="M171.31,120.39c-.83.8-1.93,1-2.46.39s-.29-1.71.53-2.51,1.93-1,2.46-.39S172.13,119.59,171.31,120.39Z" transform="translate(-30.47 -45.53)"/><path class="cls-18" d="M172.75,121.83s2.54-1.59,3-.3c.33,1-2.33,2.23-3.23,2S172.27,122.11,172.75,121.83Z" transform="translate(-30.47 -45.53)"/><polygon class="cls-42" points="85.36 70.32 93.81 75.23 107.86 67.12 99.41 62.21 85.36 70.32"/><polygon class="cls-43" points="95.62 76.07 91.97 73.95 91.92 56.06 95.57 58.19 95.62 76.07"/><polygon class="cls-14" points="95.57 58.19 91.92 56.06 103.68 49.28 107.33 51.4 95.57 58.19"/><polygon class="cls-44" points="107.33 51.4 107.38 69.28 95.62 76.07 95.57 58.19 107.33 51.4"/><polygon class="cls-45" points="106.34 53.45 106.38 68.3 96.61 73.94 96.57 59.09 106.34 53.45"/><path class="cls-16" d="M127.08,119.47l9.77-5.64,0-10.85a7.58,7.58,0,0,0-2.32,5.08c-.09,3.15-2.81,6.8-4.71,8.09A8.14,8.14,0,0,0,127.08,119.47Z" transform="translate(-30.47 -45.53)"/><path class="cls-6" d="M127.05,109a5.15,5.15,0,0,1,3.7,2.56,3.8,3.8,0,0,0,3.28,2.53,11.12,11.12,0,0,0,2.82-.29l-9.77,5.64Z" transform="translate(-30.47 -45.53)"/><path class="cls-46" d="M122.8,102.69s.74,4.65,2.59,1.51Z" transform="translate(-30.47 -45.53)"/><g class="cls-2"><path class="cls-47" d="M130.41,103.94l.31,1-.24.14-.08-.25-.29.17-.07.34-.24.14.31-1.34Zm-.27.82.23-.13-.07-.21a1.05,1.05,0,0,1-.05-.19c0,.08,0,.18-.05.25l-.06.28Z" transform="translate(-30.47 -45.53)"/><path class="cls-47" d="M129.8,104.29l-.26,1.31-.25.15-.08-.45a3.26,3.26,0,0,1-.05-.33h0c0,.14,0,.26-.05.39l-.1.56-.25.14-.24-1,.24-.14.08.43c0,.13,0,.26.06.37h0c0-.13,0-.29.07-.45l.08-.52.25-.14.08.44c0,.12,0,.24,0,.36h0c0-.14,0-.29,0-.44l.09-.52Z" transform="translate(-30.47 -45.53)"/></g><path class="cls-47" d="M131.25,103.43a.57.57,0,0,1,.25-.08l-.05.23a.82.82,0,0,0-.21.07.27.27,0,0,0-.15.2c0,.07.06.07.19.06s.27,0,.27.19a.75.75,0,0,1-.41.6.66.66,0,0,1-.29.1l0-.25a.48.48,0,0,0,.26-.07.26.26,0,0,0,.16-.22c0-.08-.05-.09-.17-.07s-.28,0-.28-.18A.74.74,0,0,1,131.25,103.43Z" transform="translate(-30.47 -45.53)"/><path class="cls-47" d="M133.14,104.56c.1,0,.17.13.17.34a1,1,0,0,1-.17.57,1.29,1.29,0,0,1-.47.42,1.52,1.52,0,0,1-.26.13v-1.15l.31-.2A.56.56,0,0,1,133.14,104.56Zm-.42,1.1a.67.67,0,0,0,.34-.61c0-.24-.12-.3-.32-.19l-.1.07v.77l.08,0Z" transform="translate(-30.47 -45.53)"/><polygon class="cls-47" points="102.1 57.16 102.11 58.32 101.87 58.46 101.87 57.98 101.5 58.19 101.5 58.67 101.26 58.81 101.26 57.65 101.5 57.51 101.5 57.96 101.87 57.74 101.87 57.3 102.1 57.16"/><polygon class="cls-47" points="102.56 56.9 102.56 58.06 102.34 58.19 102.33 57.03 102.56 56.9"/><path class="cls-47" d="M134.1,101.81V103l-.24.14-.22-.32a1.54,1.54,0,0,1-.17-.31h0c0,.15,0,.32,0,.5v.35l-.21.12v-1.16l.27-.15.21.3a1.51,1.51,0,0,1,.16.31h0a3.62,3.62,0,0,1,0-.48v-.34Z" transform="translate(-30.47 -45.53)"/><path class="cls-47" d="M134.86,101.35a.72.72,0,0,1,.28-.1l0,.24a.69.69,0,0,0-.23.08.65.65,0,0,0-.33.57c0,.24.12.31.31.2l.12-.08V102l-.16.09v-.21l.38-.22v.62a2.13,2.13,0,0,1-.34.26c-.19.11-.32.13-.41.08a.35.35,0,0,1-.15-.34A1.14,1.14,0,0,1,134.86,101.35Z" transform="translate(-30.47 -45.53)"/><path class="cls-47" d="M129.66,106.54a.2.2,0,0,1,.11.2.7.7,0,0,1-.1.34.9.9,0,0,1-.33.31l-.07,0v.41L129,108v-1.15a2.21,2.21,0,0,1,.32-.21A.43.43,0,0,1,129.66,106.54Zm-.32.64a.34.34,0,0,0,.2-.3c0-.11-.07-.13-.18-.06l-.09.06v.34l.07,0Z" transform="translate(-30.47 -45.53)"/><path class="cls-47" d="M130.39,106c.31-.18.48,0,.48.31a1,1,0,0,1-.5.9c-.29.18-.47,0-.47-.31A1,1,0,0,1,130.39,106Zm0,1a.63.63,0,0,0,.24-.54c0-.21-.09-.34-.25-.25a.63.63,0,0,0-.24.54c0,.23.09.33.25.25Z" transform="translate(-30.47 -45.53)"/><path class="cls-47" d="M132.26,105l-.26,1.31-.25.15-.08-.45a3.26,3.26,0,0,1,0-.33h0c0,.14,0,.26-.05.39l-.1.56-.25.14-.24-1,.24-.14.08.43c0,.13,0,.27.06.37h0c0-.13,0-.29.07-.44l.08-.53.24-.14.09.44c0,.12,0,.24,0,.36h0c0-.14,0-.29.05-.44l.09-.53Z" transform="translate(-30.47 -45.53)"/><polygon class="cls-47" points="103.65 58.35 103.65 58.56 103.25 58.79 103.25 59.04 103.62 58.82 103.63 59.04 103.25 59.25 103.25 59.53 103.67 59.29 103.67 59.5 103.03 59.87 103.02 58.71 103.65 58.35"/><path class="cls-47" d="M135,104.2a2.19,2.19,0,0,0,.08.28l-.23.13a.77.77,0,0,1-.07-.23c0-.12-.07-.14-.17-.09l-.07,0v.45l-.23.13v-1.15c.08,0,.18-.13.31-.2s.25-.12.32-.09.1.08.1.19a.62.62,0,0,1-.18.39h0C134.94,104.05,135,104.11,135,104.2Zm-.37-.11a.31.31,0,0,0,.18-.27c0-.11-.06-.13-.17-.07a.49.49,0,0,0-.1.08v.31l.09,0Z" transform="translate(-30.47 -45.53)"/><path class="cls-48" d="M129,109.36c.41-.23.75,0,.75.43a1.64,1.64,0,0,1-.75,1.29c-.41.24-.74,0-.74-.43A1.66,1.66,0,0,1,129,109.36Z" transform="translate(-30.47 -45.53)"/><path class="cls-49" d="M129.4,109.45c.14-.08.25,0,.25.14a.54.54,0,0,1-.25.43c-.14.08-.25,0-.25-.15A.54.54,0,0,1,129.4,109.45Z" transform="translate(-30.47 -45.53)"/><path class="cls-48" d="M134.5,106.6a.33.33,0,0,1,.54.31,1.16,1.16,0,0,1-.54.92c-.3.17-.53,0-.54-.3A1.18,1.18,0,0,1,134.5,106.6Z" transform="translate(-30.47 -45.53)"/><path class="cls-49" d="M134.68,106.66c.1,0,.18,0,.18.1a.39.39,0,0,1-.18.31c-.1.06-.18,0-.18-.1A.4.4,0,0,1,134.68,106.66Z" transform="translate(-30.47 -45.53)"/><path class="cls-48" d="M132.14,112.87c.48-.27.86-.06.86.48a1.87,1.87,0,0,1-.85,1.47c-.46.26-.84.05-.85-.49A1.87,1.87,0,0,1,132.14,112.87Z" transform="translate(-30.47 -45.53)"/><path class="cls-49" d="M132.43,113c.16-.09.28,0,.28.16a.61.61,0,0,1-.28.49c-.15.09-.28,0-.28-.16A.64.64,0,0,1,132.43,113Z" transform="translate(-30.47 -45.53)"/><path class="cls-48" d="M133.86,110.12c.27-.13.47,0,.44.3a1,1,0,0,1-.53.77c-.27.12-.46,0-.44-.31A1,1,0,0,1,133.86,110.12Z" transform="translate(-30.47 -45.53)"/><path class="cls-49" d="M133.7,110.38c.09,0,.15,0,.14.1a.37.37,0,0,1-.17.25c-.09,0-.16,0-.15-.1A.34.34,0,0,1,133.7,110.38Z" transform="translate(-30.47 -45.53)"/><polygon class="cls-26" points="301.47 150.16 267.11 170.13 227.19 147.09 261.56 127.12 301.47 150.16"/><polygon class="cls-4" points="296.42 102.36 296.28 149.91 267.3 166.75 267.43 119.21 296.42 102.36"/><polygon class="cls-3" points="267.43 119.21 267.3 166.75 233.64 147.31 233.77 99.77 267.43 119.21"/><polygon class="cls-25" points="267.43 119.21 267.42 125.78 233.75 106.27 233.77 99.77 267.43 119.21"/><polygon class="cls-5" points="296.42 102.36 267.43 119.21 233.77 99.77 262.75 82.92 296.42 102.36"/><path class="cls-5" d="M289.5,185.48c0-.14,0-.28,0-.42a1.79,1.79,0,0,0,0-.23c0-.14,0-.28,0-.42s0-.14,0-.2a2.87,2.87,0,0,0,0-.31l-.06-.44-.06-.31c0-.14-.05-.28-.08-.43s0-.24-.07-.35-.05-.19-.07-.28-.07-.27-.1-.4a2.68,2.68,0,0,0-.07-.27c0-.08,0-.16-.07-.25-.09-.31-.19-.63-.29-.95a.14.14,0,0,1,0-.07l-.33-.92L288,179l-.32-.78-.05-.11-.39-.86-.11-.22c-.11-.22-.22-.44-.34-.66l-.11-.21c-.15-.28-.29-.55-.45-.81a1.74,1.74,0,0,0-.11-.18c-.13-.24-.27-.46-.41-.68l-.14-.22c-.18-.28-.36-.56-.56-.83l-.09-.14c-.2-.27-.4-.55-.61-.82l-.1-.14c-.07-.07-.12-.15-.18-.22s-.19-.23-.28-.34l-.21-.25-.24-.28c-.17-.2-.34-.39-.52-.57l0,0-.57-.58-.36-.34a1.14,1.14,0,0,0-.11-.11c-.16-.15-.32-.3-.49-.44l-.13-.12-.37-.31-.18-.14-.33-.26-.2-.15-.33-.24-.19-.13c-.12-.09-.24-.16-.37-.24l-.16-.11-.53-.33-.51-.27-.14-.08-.45-.21-.06,0a4.58,4.58,0,0,0-.46-.2l-.49-.19-.12,0c-.21-.07-.41-.14-.61-.19l-.34-.09-.16,0-.51-.09h0l-.45-.06h-1.05a2.73,2.73,0,0,0-.41,0h-.09l-.28.05a3.39,3.39,0,0,0-.55.13h0a5,5,0,0,0-.5.18l-.14.06-.41.2-.13.07,2.08-1.21.06,0,.07,0,.41-.2.08,0,.07,0a3.17,3.17,0,0,1,.49-.17h.06l.36-.09.11,0,.12,0,.21,0h.09l.37,0h.74l.2,0h.15l.45,0h0l.5.09.16,0,.32.08h0l.6.18.12.05.49.18.06,0,.4.17.06,0,.45.22.14.07.51.28.53.33.17.11.36.23.19.14.33.24.2.15.33.25.18.15.37.31.13.12c.17.14.33.29.49.44a.47.47,0,0,1,.1.1l.33.3,0,.06c.19.18.39.37.57.57l0,0,.53.58.05.06.2.24.21.25.23.28c.07.1.15.19.23.29l0,0a.35.35,0,0,0,.05.08c.22.27.42.56.63.84l.06.08h0s0,0,0,.05q.3.41.57.84l.05.08.07.11c.15.24.3.48.44.72l.07.11,0,0,.46.83,0,.07.08.14.33.66c0,.05.05.09.07.14l0,.09c.14.28.27.56.39.85l0,0a.36.36,0,0,0,0,.09c.1.26.21.52.31.77a1.12,1.12,0,0,1,.05.13s0,.07,0,.11c.11.31.23.61.33.92,0,0,0,0,0,0a.14.14,0,0,0,0,.06c.1.32.2.64.29,1l0,.11,0,.11c0,.09.05.19.08.29l.09.38c0,.1.05.2.07.29a1.77,1.77,0,0,1,0,.2l0,.15.09.43c0,.1,0,.21.05.31s.05.29.06.44a1.43,1.43,0,0,1,0,.22.22.22,0,0,0,0,.08c0,.07,0,.14,0,.2s0,.3.05.44,0,.14,0,.21,0,.29,0,.44,0,.13,0,.18c0,.21,0,.41,0,.62,0,3.5-1.25,6-3.24,7.12l-2.08,1.21c2-1.16,3.23-3.62,3.24-7.12,0-.2,0-.41,0-.61S289.51,185.55,289.5,185.48Z" transform="translate(-30.47 -45.53)"/><path class="cls-4" d="M278.47,167.12c-6.13-3.53-11.12-.69-11.14,6.35s4.93,15.63,11.06,19.16,11.12.7,11.14-6.34S284.59,170.66,278.47,167.12Z" transform="translate(-30.47 -45.53)"/><path class="cls-5" d="M278.46,170.31c-4.67-2.7-8.48-.53-8.5,4.84s3.77,11.92,8.44,14.61,8.48.53,8.49-4.83S283.13,173,278.46,170.31Z" transform="translate(-30.47 -45.53)"/><path class="cls-25" d="M278.46,170.31c4.67,2.7,8.45,9.24,8.43,14.62a6.55,6.55,0,0,1-1.68,4.83,7.26,7.26,0,0,1-4.36-1.13c-4.68-2.7-8.45-9.24-8.44-14.62a6.54,6.54,0,0,1,1.69-4.83A7.21,7.21,0,0,1,278.46,170.31Z" transform="translate(-30.47 -45.53)"/><path class="cls-50" d="M286.89,184.93a8.71,8.71,0,0,1-.34,2.51,8.72,8.72,0,0,1-2.21-.93c-4.68-2.7-8.45-9.24-8.44-14.62a9.18,9.18,0,0,1,.35-2.52,9.32,9.32,0,0,1,2.21.94C283.13,173,286.91,179.55,286.89,184.93Z" transform="translate(-30.47 -45.53)"/><polygon class="cls-4" points="265.27 119.02 265.25 123.84 256.43 118.86 256.43 113.91 265.27 119.02"/><polygon class="cls-5" points="255.04 113.36 255.04 115.15 246.2 110.2 246.2 108.25 255.04 113.36"/><polygon class="cls-51" points="252.66 111.99 252.67 113.82 248.2 111.32 248.2 109.41 252.66 111.99"/><path class="cls-5" d="M272.43,153.66c0-.09,0-.19-.07-.29v0a2.83,2.83,0,0,0-.11-.31h0c-.05-.1-.1-.21-.16-.31h0a2.9,2.9,0,0,0-.19-.29v0l-.19-.23s0,0-.05-.05l-.16-.15-.08-.07-.25-.17a1.12,1.12,0,0,0-.25-.11l0,0a.78.78,0,0,0-.21,0h-.24a.48.48,0,0,0-.2.07h0l.43-.25.3-.18h0l.06,0,.07,0h.34l.12,0,0,0h.05l.06,0,.19.09a1.88,1.88,0,0,1,.24.18l.08.06.11.1.05.06.05,0,.05.06a1.13,1.13,0,0,1,.1.13l0,0,0,0,0,.05a.44.44,0,0,1,.08.11l.07.11h0a.41.41,0,0,0,.05.09l.06.11a1,1,0,0,0,0,.1h0a.61.61,0,0,0,0,.12s0,.08,0,.12,0,0,0,.06v0a.08.08,0,0,1,0,0s0,.1,0,.15a.31.31,0,0,1,0,.09.11.11,0,0,1,0,.05v0a2.46,2.46,0,0,1,0,.26.94.94,0,0,1-.39.85l-.73.42a.93.93,0,0,0,.38-.84c0-.1,0-.2,0-.3S272.43,153.68,272.43,153.66Z" transform="translate(-30.47 -45.53)"/><path class="cls-4" d="M271.15,151.74c-.72-.42-1.31-.08-1.32.75a2.92,2.92,0,0,0,1.31,2.27c.73.42,1.32.08,1.32-.75A2.87,2.87,0,0,0,271.15,151.74Z" transform="translate(-30.47 -45.53)"/><path class="cls-5" d="M268.31,151.49a1.74,1.74,0,0,0-.07-.29v0c0-.1-.07-.21-.12-.31h0a2.39,2.39,0,0,0-.16-.32h0l-.19-.29h0a1.59,1.59,0,0,0-.2-.24l0,0-.16-.15-.08-.07a2.2,2.2,0,0,0-.25-.17,1.28,1.28,0,0,0-.24-.11l-.05,0a.78.78,0,0,0-.21,0h0a.49.49,0,0,0-.21,0h0a.4.4,0,0,0-.19.07h0l.43-.26.3-.17h0a.15.15,0,0,1,.07,0l.06,0h.35l.11,0,.05,0h0l.05,0,.19.09.24.17.08.07.12.1.05.06s0,0,0,0l.05.06.11.13,0,0,0,0,0,0a.76.76,0,0,1,.08.11l.07.11h0a.41.41,0,0,0,.05.09l.06.12a.3.3,0,0,1,0,.1h0l.05.12s0,.08,0,.12a.14.14,0,0,1,0,.06v0a.07.07,0,0,1,0,.05.66.66,0,0,1,0,.15.24.24,0,0,0,0,.08v.05s0,0,0,0a2.11,2.11,0,0,1,0,.25.94.94,0,0,1-.38.85l-.74.42a1,1,0,0,0,.39-.84c0-.1,0-.2,0-.3S268.31,151.51,268.31,151.49Z" transform="translate(-30.47 -45.53)"/><path class="cls-4" d="M267,149.57c-.72-.42-1.31-.08-1.32.75a2.9,2.9,0,0,0,1.32,2.27c.72.42,1.31.08,1.32-.75A2.9,2.9,0,0,0,267,149.57Z" transform="translate(-30.47 -45.53)"/><g class="cls-2"><polygon class="cls-52" points="254.48 117.31 254.66 117.2 254.67 115.52 254.48 115.62 254.48 117.31"/><polygon class="cls-52" points="254.48 115.62 254.67 115.52 254.1 115.18 253.91 115.29 254.48 115.62"/><polygon class="cls-53" points="253.91 115.29 253.9 116.98 254.48 117.31 254.48 115.62 253.91 115.29"/></g><g class="cls-2"><polygon class="cls-52" points="253.25 116.69 253.44 116.58 253.44 114.89 253.26 115 253.25 116.69"/><polygon class="cls-52" points="253.26 115 253.44 114.89 252.87 114.56 252.68 114.67 253.26 115"/><polygon class="cls-53" points="252.68 114.67 252.67 116.36 253.25 116.69 253.26 115 252.68 114.67"/></g><g class="cls-2"><polygon class="cls-52" points="248.01 113.82 248.2 113.71 248.2 112.03 248.02 112.14 248.01 113.82"/><polygon class="cls-52" points="248.02 112.14 248.2 112.03 247.63 111.69 247.44 111.8 248.02 112.14"/><polygon class="cls-53" points="247.44 111.8 247.44 113.49 248.01 113.82 248.02 112.14 247.44 111.8"/></g><g class="cls-2"><polygon class="cls-52" points="246.79 113.2 246.97 113.09 246.98 111.41 246.79 111.51 246.79 113.2"/><polygon class="cls-52" points="246.79 111.51 246.98 111.41 246.4 111.07 246.22 111.18 246.79 111.51"/><polygon class="cls-53" points="246.22 111.18 246.21 112.87 246.79 113.2 246.79 111.51 246.22 111.18"/></g><polygon class="cls-4" points="296.42 54.65 296.28 102.19 267.3 119.03 267.43 71.49 296.42 54.65"/><polygon class="cls-3" points="267.43 71.49 267.3 119.03 233.64 99.6 233.77 52.05 267.43 71.49"/><polygon class="cls-25" points="267.43 71.49 267.42 78.06 233.75 58.54 233.77 52.05 267.43 71.49"/><polygon class="cls-5" points="296.42 54.65 267.43 71.49 233.77 52.05 262.75 35.21 296.42 54.65"/><path class="cls-4" d="M281,121.8c-6.13-3.53-11.12-.69-11.14,6.35s4.93,15.62,11.06,19.17S292,148,292,141,287.08,125.35,281,121.8Z" transform="translate(-30.47 -45.53)"/><path class="cls-25" d="M280.94,125c-4.68-2.7-8.48-.53-8.49,4.84s3.76,11.92,8.43,14.61,8.48.53,8.49-4.84S285.61,127.69,280.94,125Z" transform="translate(-30.47 -45.53)"/><polygon class="cls-4" points="265.27 71.3 265.25 76.12 256.43 71.15 256.43 66.19 265.27 71.3"/><polygon class="cls-5" points="255.04 65.64 255.04 67.43 246.2 62.48 246.2 60.53 255.04 65.64"/><polygon class="cls-51" points="252.66 64.27 252.67 66.1 248.2 63.6 248.2 61.69 252.66 64.27"/><path class="cls-5" d="M272.43,105.94c0-.09,0-.19-.07-.29a0,0,0,0,0,0,0,2.83,2.83,0,0,0-.11-.31h0c-.05-.1-.1-.21-.16-.31h0a2.9,2.9,0,0,0-.19-.29,0,0,0,0,1,0,0l-.19-.23a.12.12,0,0,1-.05,0l-.16-.15-.08-.07-.25-.17a1.12,1.12,0,0,0-.25-.11l0,0a.78.78,0,0,0-.21,0h-.24a.68.68,0,0,0-.2.07h0l.43-.25.3-.18h0l.06,0,.07,0h.34l.12,0,0,0h.05l.06,0,.19.1a1.18,1.18,0,0,1,.24.17l.08.06a1.14,1.14,0,0,1,.11.11.12.12,0,0,1,.05,0l.05,0,.05.06a.64.64,0,0,1,.1.13l0,0s0,0,0,0l0,0a.44.44,0,0,1,.08.11.41.41,0,0,0,.07.11h0a.41.41,0,0,0,.05.09l.06.12a1,1,0,0,1,0,.1h0a.61.61,0,0,0,0,.12s0,.08,0,.12,0,0,0,.06v0a.08.08,0,0,1,0,0s0,.09,0,.14a.28.28,0,0,1,0,.09.09.09,0,0,1,0,0v0a2.11,2.11,0,0,1,0,.25.92.92,0,0,1-.39.84l-.73.43a.93.93,0,0,0,.38-.84c0-.1,0-.2,0-.3S272.43,106,272.43,105.94Z" transform="translate(-30.47 -45.53)"/><path class="cls-4" d="M271.15,104c-.72-.42-1.31-.08-1.32.75a2.9,2.9,0,0,0,1.31,2.27c.73.42,1.32.08,1.32-.75A2.85,2.85,0,0,0,271.15,104Z" transform="translate(-30.47 -45.53)"/><path class="cls-5" d="M268.31,103.77a1.74,1.74,0,0,0-.07-.29v0a2.85,2.85,0,0,0-.12-.31h0a1.91,1.91,0,0,0-.16-.32h0a2.75,2.75,0,0,0-.19-.28v0a2.31,2.31,0,0,0-.2-.24s0,0,0,0a1.21,1.21,0,0,0-.16-.16l-.08-.07a2.2,2.2,0,0,0-.25-.17,1.28,1.28,0,0,0-.24-.11h-.05a.54.54,0,0,0-.21,0h0a.49.49,0,0,0-.21,0h0a.54.54,0,0,0-.19.07h0l.43-.25.3-.17h0l.07,0,.06,0h.35l.11,0,.05,0,0,0,.05,0a.82.82,0,0,1,.19.09,1.18,1.18,0,0,1,.24.17l.08.06.12.1.05.06a.08.08,0,0,0,0,0l.05.06.11.13,0,0s0,0,0,0l0,0a.76.76,0,0,1,.08.11l.07.11h0a.26.26,0,0,0,.05.09l.06.12a.42.42,0,0,1,0,.1h0l.05.12s0,.08,0,.12a.14.14,0,0,1,0,.06s0,0,0,0a.09.09,0,0,1,0,0,.83.83,0,0,1,0,.15.24.24,0,0,0,0,.08v0a.43.43,0,0,0,0,0,2.29,2.29,0,0,1,0,.25.94.94,0,0,1-.38.85L268,105a1,1,0,0,0,.39-.84c0-.1,0-.2,0-.3S268.31,103.79,268.31,103.77Z" transform="translate(-30.47 -45.53)"/><path class="cls-4" d="M267,101.85c-.72-.42-1.31-.08-1.32.75a2.89,2.89,0,0,0,1.32,2.27c.72.42,1.31.08,1.32-.75A2.9,2.9,0,0,0,267,101.85Z" transform="translate(-30.47 -45.53)"/><g class="cls-2"><polygon class="cls-52" points="254.48 69.59 254.66 69.49 254.67 67.8 254.48 67.9 254.48 69.59"/><polygon class="cls-52" points="254.48 67.9 254.67 67.8 254.1 67.46 253.91 67.57 254.48 67.9"/><polygon class="cls-53" points="253.91 67.57 253.9 69.26 254.48 69.59 254.48 67.9 253.91 67.57"/></g><g class="cls-2"><polygon class="cls-52" points="253.25 68.97 253.44 68.86 253.44 67.17 253.26 67.28 253.25 68.97"/><polygon class="cls-52" points="253.26 67.28 253.44 67.17 252.87 66.84 252.68 66.95 253.26 67.28"/><polygon class="cls-53" points="252.68 66.95 252.67 68.64 253.25 68.97 253.26 67.28 252.68 66.95"/></g><g class="cls-2"><polygon class="cls-52" points="248.01 66.1 248.2 65.99 248.2 64.31 248.02 64.42 248.01 66.1"/><polygon class="cls-52" points="248.02 64.42 248.2 64.31 247.63 63.97 247.44 64.08 248.02 64.42"/><polygon class="cls-53" points="247.44 64.08 247.44 65.77 248.01 66.1 248.02 64.42 247.44 64.08"/></g><g class="cls-2"><polygon class="cls-52" points="246.79 65.48 246.97 65.37 246.98 63.68 246.79 63.79 246.79 65.48"/><polygon class="cls-52" points="246.79 63.79 246.98 63.68 246.4 63.35 246.22 63.46 246.79 63.79"/><polygon class="cls-53" points="246.22 63.46 246.21 65.15 246.79 65.48 246.79 63.79 246.22 63.46"/></g><path class="cls-5" d="M272.44,148.19l0-.38a1.27,1.27,0,0,1,0-.2c0-.13,0-.27,0-.39s0-.12,0-.19,0-.18,0-.27l.06-.41a2.56,2.56,0,0,0,.05-.27c0-.13.05-.26.07-.39s.05-.22.07-.33l.06-.25.09-.36.06-.25a1.42,1.42,0,0,0,.07-.22c.08-.29.17-.57.27-.87,0,0,0,0,0-.06l.3-.83.09-.22c.09-.24.18-.47.29-.71a1,1,0,0,0,0-.1l.35-.78a1.24,1.24,0,0,0,.1-.2c.1-.2.2-.4.31-.6a1.74,1.74,0,0,1,.1-.19c.13-.25.27-.5.41-.74,0-.06.07-.11.1-.16l.37-.62A1.27,1.27,0,0,1,276,138c.16-.26.33-.51.5-.76l.09-.12c.18-.26.36-.51.55-.75a1.47,1.47,0,0,0,.1-.13l.16-.2c.08-.11.17-.21.25-.31s.13-.15.19-.22l.22-.26.47-.52,0,0,.52-.53.33-.32.09-.09.45-.4.12-.1.33-.28.17-.14.3-.23.18-.13a3.3,3.3,0,0,1,.3-.22l.17-.13.33-.21.15-.1c.16-.11.32-.2.49-.3l.46-.25a.47.47,0,0,0,.12-.07l.41-.19.06,0,.42-.18.44-.17.11,0,.55-.17.31-.08.15,0,.45-.08h0l.41-.05h.95l.38,0h.08l.25,0a2.8,2.8,0,0,1,.5.12h0l.46.16.13.06a3.14,3.14,0,0,1,.37.18l.12.06-1.89-1.1-.06,0-.07,0a2.12,2.12,0,0,0-.37-.18l-.06,0-.07,0a4.72,4.72,0,0,0-.45-.16h0l-.34-.08-.1,0-.1,0-.2,0h-.08l-.33,0h-1l-.41.05h0a3.58,3.58,0,0,0-.45.09l-.15,0-.29.07h0l-.55.17-.11,0-.44.17-.06,0-.37.16-.05,0-.41.21-.12.06-.47.25-.48.3-.15.09-.33.22c-.06,0-.11.09-.18.13l-.29.21-.18.14-.3.23-.17.14-.33.27-.13.11-.44.4-.09.09-.29.28,0,.05c-.18.17-.35.34-.52.52,0,0,0,0,0,0-.16.18-.32.35-.47.53l-.05,0-.18.22-.2.23-.21.26c-.06.09-.13.17-.2.26l0,0,0,.06c-.2.26-.39.51-.58.78l-.05.07h0l0,0-.51.76,0,.07-.07.11-.4.65a.47.47,0,0,1-.06.09v0q-.22.38-.42.75l0,.06-.06.13q-.17.3-.3.6l-.08.13s0,.05,0,.08c-.12.25-.24.51-.35.77v0l0,.09c-.1.24-.19.47-.29.7,0,0,0,.08,0,.12a1,1,0,0,0,0,.1c-.1.27-.2.55-.29.83,0,0,0,0,0,0a.14.14,0,0,0,0,.06c-.1.29-.19.58-.27.86l0,.11s0,.06,0,.09a2.68,2.68,0,0,0-.07.27L271,144l-.06.26c0,.06,0,.12,0,.18l0,.14c0,.13-.05.26-.07.39a2.74,2.74,0,0,0-.05.28c0,.13-.05.26-.06.4l0,.19a.28.28,0,0,1,0,.09c0,.05,0,.11,0,.18s0,.26-.05.39a1.21,1.21,0,0,1,0,.19c0,.14,0,.27,0,.4a1,1,0,0,0,0,.17c0,.19,0,.37,0,.56,0,3.17,1.13,5.41,2.94,6.46l1.89,1.1c-1.81-1-2.93-3.29-2.94-6.46,0-.19,0-.37,0-.56S272.44,148.25,272.44,148.19Z" transform="translate(-30.47 -45.53)"/><path class="cls-4" d="M282.47,131.52c5.56-3.21,10.09-.63,10.11,5.77s-4.48,14.19-10.05,17.4-10.09.63-10.11-5.76S276.9,134.74,282.47,131.52Z" transform="translate(-30.47 -45.53)"/><path class="cls-5" d="M282.47,134.41c4.25-2.45,7.7-.48,7.72,4.4a16.89,16.89,0,0,1-7.67,13.27c-4.24,2.45-7.69.48-7.7-4.39A16.88,16.88,0,0,1,282.47,134.41Z" transform="translate(-30.47 -45.53)"/><path class="cls-25" d="M282.47,134.41a16.88,16.88,0,0,0-7.65,13.28,6,6,0,0,0,1.52,4.39,6.55,6.55,0,0,0,4-1A16.85,16.85,0,0,0,288,137.78a6,6,0,0,0-1.52-4.39A6.65,6.65,0,0,0,282.47,134.41Z" transform="translate(-30.47 -45.53)"/><path class="cls-27" d="M274.82,147.69a8,8,0,0,0,.31,2.29,8.27,8.27,0,0,0,2-.86,16.88,16.88,0,0,0,7.67-13.26,8.4,8.4,0,0,0-.32-2.3,8.44,8.44,0,0,0-2,.85A16.88,16.88,0,0,0,274.82,147.69Z" transform="translate(-30.47 -45.53)"/><path class="cls-26" d="M260.44,209.2c7,4,7,10.59.08,14.62s-18.25,4-25.24,0-7-10.58-.09-14.62S253.45,205.16,260.44,209.2Z" transform="translate(-30.47 -45.53)"/><path class="cls-18" d="M243.4,214.1c.12,0,6.2-.17,4.85,2a3.46,3.46,0,0,1-3,1.64c-.92,0-2.58-.47-3-.22s-2.47,1.57-3.65.24a2,2,0,0,1-.24-1.55C238.5,215.66,242.72,214,243.4,214.1Z" transform="translate(-30.47 -45.53)"/><path class="cls-17" d="M248.25,216.05a3.46,3.46,0,0,1-3,1.64c-.92,0-2.58-.47-3-.22s-2.47,1.57-3.65.24a1.68,1.68,0,0,1-.29-.76c.83,1.13,2.86.82,3.42.44a3.38,3.38,0,0,1,2.36-.48,4.73,4.73,0,0,0,3.4-.81,1.29,1.29,0,0,0,.39-1.37A.82.82,0,0,1,248.25,216.05Z" transform="translate(-30.47 -45.53)"/><path class="cls-18" d="M252.15,218.06c4.37-.57,9,.14,7.26,2.38a4.56,4.56,0,0,1-3.8,1.7c-1.17,0-3.29-.54-3.81-.28s-3.13,1.64-4.65.2a3,3,0,0,1-.6-2.1C246.74,219.43,251.29,218.18,252.15,218.06Z" transform="translate(-30.47 -45.53)"/><path class="cls-29" d="M263.76,140.53s3.17-2.3,5.12-1.18,2.09,1.65,1,1.86-3.93.85-3.54,1.15,1.45.44,1.2.8-3.38-.17-3.38-.17l-1.72-1.67Z" transform="translate(-30.47 -45.53)"/><path class="cls-16" d="M241.71,145.44a3.49,3.49,0,0,0-3.78,3.53c-.09,4,7.78,2.67,7.78,2.67s6.81-.56,8.92-1.39c2.82-1.09,10.12-6.73,10.12-6.73s-.51-2.31-2.09-2.92c0,0-6.89,4.52-9.5,5C250.32,146.18,242.33,145.31,241.71,145.44Z" transform="translate(-30.47 -45.53)"/><path class="cls-24" d="M239.44,168.26s-3.79,6.4-.39,15.25c0,0,2.61,7.48,2,10-.69,3-1.7,2.15-2.44,12.08-.65,8.77-.61,7.39-.46,10.61,0,1,4.16,1.89,4.81-.67,1.69-6.57,5.78-20.29,5-28.24s-1.23-15.37-1.23-15.37S242,170.52,239.44,168.26Z" transform="translate(-30.47 -45.53)"/><path class="cls-19" d="M244.75,173.2s-3.82,5.7,1.34,13.23c0,0,3.87,8.46,3.35,11.3s-1.5,2.69-2.51,11.67c-.64,5.71-1,7.14-.59,10.82.17,1.35,5.4,1.49,5.7-.43,1.06-6.66,6-21,5.3-28.94S255,174,255,174,248.21,175.12,244.75,173.2Z" transform="translate(-30.47 -45.53)"/><path class="cls-18" d="M255.09,153.91s.9-4.22-6.16-6.75-11.41-2.44-11.5,1.5,1.74,9.19,2,11a15.57,15.57,0,0,1-.85,8.89c-1.69,4-2.49,7.9,8.7,8.55,1.95.12,9.22.08,8.19-4.45A56.37,56.37,0,0,1,255.09,153.91Z" transform="translate(-30.47 -45.53)"/><path class="cls-29" d="M274.55,144.34s2.77-2.75,2-4.86-1.28-2.32-1.66-1.29-1.48,3.74-1.71,3.3-.21-1.49-.6-1.31-.38,3.37-.38,3.37l1.37,2Z" transform="translate(-30.47 -45.53)"/><path class="cls-37" d="M252.2,149.94a3.25,3.25,0,0,0-3,4c.66,4,8.15,1.66,8.15,1.66s6.58-1.41,8.5-2.5c2.56-1.45,8.65-8,8.65-8s-.93-2.23-2.6-2.63c0,0-5.9,5.36-8.37,6.19C260.8,149.58,252.79,149.74,252.2,149.94Z" transform="translate(-30.47 -45.53)"/><path class="cls-29" d="M248.54,142.65s-.74,3,.72,4.8c.79,1-2.35,2-4.88.71,0,0-.22-5.1-2.1-6.88Z" transform="translate(-30.47 -45.53)"/><path class="cls-34" d="M248.37,144.8a11.94,11.94,0,0,1-2.83-.83l-.11.08-.57.82-.33-.48s.57,3.11,4.33,2.43A6.61,6.61,0,0,1,248.37,144.8Z" transform="translate(-30.47 -45.53)"/><path class="cls-17" d="M259.41,220.44a4.56,4.56,0,0,1-3.8,1.7c-1.17,0-3.29-.54-3.81-.28s-3.13,1.64-4.65.2a2.35,2.35,0,0,1-.5-1c1.06,1.22,3.77,1.1,4.48.71a4.94,4.94,0,0,1,3-.48,6.78,6.78,0,0,0,4.31-.81,2,2,0,0,0,.72-1.84A1.14,1.14,0,0,1,259.41,220.44Z" transform="translate(-30.47 -45.53)"/><path class="cls-29" d="M248.62,130.67a6.87,6.87,0,0,1,3.46,5.12c.55,3.56,1.67,6.64-.1,8.18s-8.36,1.16-10.51-3.39S242,128.61,248.62,130.67Z" transform="translate(-30.47 -45.53)"/><path class="cls-28" d="M252.88,135.25a2.47,2.47,0,0,1-1.52,2.22c-1.61.66-3.52.59-3.7,1.67s1.84,8.75.45,9.7c-1.8,1.21-6.62-1.09-7.37-1.92-1-1.13-2.12-9,0-13.56a6.81,6.81,0,0,1,6.48-3.06S252.68,131,252.88,135.25Z" transform="translate(-30.47 -45.53)"/><path class="cls-29" d="M246.25,141.85c.79.77,1.84.93,2.34.38s.28-1.63-.5-2.4-1.84-.93-2.35-.37S245.47,141.09,246.25,141.85Z" transform="translate(-30.47 -45.53)"/></svg>